<svg width="701" height="501" viewBox="0 0 701 501" fill="none" xmlns="http://www.w3.org/2000/svg">
<path d="M1 1H701V501H1V1Z" fill="#FFF1F2"/>
<path d="M266.334 232.741H262.334V248.632H266.334V232.741ZM335.366 232.741L328.94 248.632H324.726L318.175 232.741H322.572L326.849 243.991L331.093 232.742L335.366 232.741ZM348.919 240.671C348.919 237.692 346.8 235.753 344.245 235.753C341.567 235.753 339.571 237.74 339.571 240.671C339.571 243.602 341.567 245.47 344.245 245.47C346.812 245.47 348.919 243.606 348.919 240.671ZM350.978 248.618L349.104 242.841L348.83 246.844C347.661 248.188 345.969 249.072 343.508 249.072C338.742 249.072 335.418 245.47 335.418 240.671C335.418 235.871 338.712 232.162 343.477 232.162C344.466 232.135 345.45 232.321 346.362 232.706C347.274 233.091 348.094 233.667 348.765 234.395V232.745H352.752V241.522L355.179 248.644L350.978 248.618ZM259 238.326V248.635H254.949V238.968C254.949 236.739 253.951 235.625 252.145 235.625C250.054 235.625 249.028 237.109 249.028 239.743V248.626H244.981V239.007C244.981 237.305 244.262 235.633 242.236 235.633C240.211 235.633 239.153 237.271 239.058 239.811V248.635H235V232.536H239.051V236.965L240.018 233.251C240.485 232.815 241.034 232.475 241.633 232.251C242.232 232.028 242.869 231.925 243.508 231.948C246.372 231.948 248.428 233.773 248.928 236.778L249.784 233.251C250.243 232.812 250.787 232.47 251.381 232.246C251.976 232.023 252.61 231.921 253.244 231.948C256.829 231.948 258.978 234.208 258.978 238.33M261.734 228.554C261.734 228.049 261.886 227.555 262.168 227.135C262.451 226.714 262.852 226.386 263.322 226.193C263.791 226 264.307 225.95 264.804 226.05C265.176 226.122 265.527 226.275 265.833 226.499C266.138 226.723 266.389 227.012 266.568 227.346C266.748 227.679 266.851 228.048 266.869 228.426C266.888 228.804 266.822 229.182 266.677 229.531C266.482 229.998 266.153 230.397 265.732 230.677C265.237 231.005 264.644 231.153 264.053 231.095C263.462 231.037 262.909 230.777 262.487 230.359C262.248 230.123 262.059 229.841 261.93 229.532C261.801 229.222 261.735 228.889 261.734 228.554ZM285.123 239.314V248.635H281.123V239.892C281.123 237.051 280.173 235.83 277.959 235.83C275.621 235.83 274.268 237.45 274.268 240.229V248.635H270.269V232.745H274.268V237.357L275.158 233.754C276.048 232.805 277.299 232.162 279.247 232.162C283.064 232.162 285.123 234.668 285.123 239.314ZM292.11 239.102H299.308C299.308 236.931 298.024 235.463 295.831 235.463C293.956 235.463 292.514 236.566 292.11 239.102ZM303.461 241.909H292.08C292.448 244.691 294.051 245.793 296.265 245.793C298.354 245.793 299.689 244.968 300.508 243.134L303.338 245.687C301.771 247.98 299.154 249.09 296.14 249.09C291.002 249.09 287.837 245.611 287.837 240.752C287.837 235.771 291.22 232.162 295.972 232.162C300.618 232.162 303.569 235.523 303.569 240.382C303.581 240.893 303.551 241.404 303.48 241.91M316.481 232.588V236.465C315.812 236.257 315.116 236.154 314.416 236.159C312.142 236.159 310.635 237.84 310.635 240.958V248.615H306.636V232.745H310.635V237.968L311.525 233.813C311.953 233.351 312.471 232.981 313.048 232.728C313.625 232.476 314.248 232.345 314.878 232.345C315.424 232.315 315.969 232.399 316.481 232.591" fill="#2B3D4A"/>
<path d="M245.465 262.564H240.668V275.984H237.838V262.566H235V260.089H237.83V258.196C237.83 255.171 239.8 253.003 242.874 253.003C243.651 253.001 244.426 253.092 245.182 253.275V255.72C244.595 255.595 243.996 255.534 243.397 255.537C241.683 255.537 240.661 256.333 240.661 258.285V260.089H245.456L245.465 262.564ZM250.447 268.001C250.447 271.549 252.845 273.838 256.074 273.838C259.303 273.838 261.734 271.549 261.734 268.001C261.734 264.453 259.366 262.168 256.074 262.168C252.781 262.168 250.447 264.487 250.447 268.001ZM264.655 268.001C264.655 272.982 260.904 276.438 256.092 276.438C251.28 276.438 247.575 272.982 247.575 268.001C247.575 263.018 251.296 259.569 256.092 259.569C260.887 259.569 264.655 263.023 264.655 268.001ZM270.038 268.001C270.038 271.549 272.435 273.838 275.664 273.838C278.893 273.838 281.325 271.549 281.325 268.001C281.325 264.453 278.957 262.168 275.664 262.168C272.37 262.168 270.038 264.487 270.038 268.001ZM284.245 268.001C284.245 272.982 280.494 276.438 275.68 276.438C270.867 276.438 267.164 272.982 267.164 268.001C267.164 263.018 270.885 259.569 275.68 259.569C280.476 259.569 284.245 263.023 284.245 268.001ZM300.94 268.036C300.94 264.735 298.697 262.136 295.284 262.136C291.747 262.136 289.623 264.735 289.623 268.036C289.623 271.338 291.764 273.874 295.284 273.874C298.71 273.874 300.94 271.322 300.94 268.036ZM303.081 275.984L301.082 269.964L300.774 273.814C299.545 275.311 297.604 276.443 294.839 276.443C289.948 276.443 286.751 272.746 286.751 268.041C286.751 263.336 289.948 259.575 294.837 259.575C295.996 259.534 297.148 259.771 298.197 260.266C299.245 260.76 300.161 261.498 300.867 262.417V253.521H303.694V269.105L306.053 275.984H303.081ZM321.46 264.214L318.754 265.223C318.629 263.176 317.181 261.891 314.754 261.891C312.571 261.891 311.277 262.929 311.277 264.274C311.277 268.035 321.674 265.346 321.674 271.578C321.674 274.693 319.027 276.438 315.033 276.438C310.908 276.438 308.326 274.42 307.835 271.549L310.601 270.387C310.725 272.799 312.447 274.114 315.033 274.114C317.063 274.114 318.629 273.412 318.629 271.761C318.629 268.035 308.353 270.813 308.353 264.456C308.353 261.615 311.273 259.569 314.749 259.569C318.471 259.569 321.052 261.432 321.456 264.213" fill="#E84752"/>
<path d="M445.252 264.083C443.922 264.083 442.724 263.789 441.656 263.2C440.589 262.594 439.74 261.754 439.11 260.681C438.498 259.607 438.191 258.343 438.191 256.888C438.191 255.416 438.498 254.144 439.11 253.07C439.74 251.997 440.589 251.165 441.656 250.577C442.724 249.988 443.922 249.694 445.252 249.694C446.442 249.694 447.483 249.953 448.376 250.473C449.268 250.992 449.959 251.78 450.449 252.836C450.939 253.893 451.184 255.243 451.184 256.888C451.184 258.516 450.948 259.867 450.475 260.94C450.003 261.997 449.32 262.784 448.428 263.304C447.553 263.823 446.494 264.083 445.252 264.083ZM445.961 260.758C446.626 260.758 447.229 260.603 447.772 260.291C448.314 259.979 448.743 259.538 449.058 258.966C449.39 258.377 449.557 257.685 449.557 256.888C449.557 256.074 449.39 255.382 449.058 254.81C448.743 254.239 448.314 253.797 447.772 253.486C447.229 253.174 446.626 253.018 445.961 253.018C445.278 253.018 444.666 253.174 444.123 253.486C443.581 253.797 443.143 254.239 442.811 254.81C442.496 255.382 442.339 256.074 442.339 256.888C442.339 257.685 442.496 258.377 442.811 258.966C443.143 259.538 443.581 259.979 444.123 260.291C444.666 260.603 445.278 260.758 445.961 260.758ZM449.662 263.875V261.018L449.74 256.862L449.478 252.732V244.603H453.573V263.875H449.662Z" fill="#2B3D4A"/>
<path d="M429.638 264.083C428.028 264.083 426.611 263.771 425.386 263.148C424.179 262.525 423.243 261.676 422.578 260.603C421.913 259.512 421.58 258.274 421.58 256.888C421.58 255.486 421.904 254.248 422.551 253.174C423.216 252.083 424.117 251.235 425.255 250.629C426.392 250.005 427.678 249.693 429.113 249.693C430.496 249.693 431.738 249.988 432.84 250.577C433.96 251.148 434.844 251.979 435.491 253.07C436.139 254.144 436.463 255.434 436.463 256.94C436.463 257.096 436.454 257.278 436.436 257.486C436.419 257.676 436.401 257.858 436.384 258.031H424.914V255.668H434.232L432.657 256.369C432.657 255.642 432.508 255.009 432.211 254.473C431.913 253.936 431.502 253.52 430.977 253.226C430.452 252.914 429.839 252.758 429.14 252.758C428.44 252.758 427.818 252.914 427.276 253.226C426.751 253.52 426.34 253.945 426.042 254.499C425.745 255.035 425.596 255.676 425.596 256.421V257.044C425.596 257.806 425.762 258.481 426.095 259.07C426.445 259.642 426.926 260.083 427.538 260.395C428.168 260.689 428.903 260.836 429.743 260.836C430.496 260.836 431.152 260.724 431.712 260.499C432.289 260.274 432.814 259.936 433.287 259.486L435.465 261.823C434.818 262.551 434.004 263.113 433.024 263.512C432.044 263.893 430.916 264.083 429.638 264.083Z" fill="#2B3D4A"/>
<path d="M413.08 264.083C411.47 264.083 410.052 263.771 408.828 263.148C407.62 262.525 406.684 261.676 406.019 260.603C405.354 259.512 405.022 258.274 405.022 256.888C405.022 255.486 405.345 254.248 405.993 253.174C406.658 252.083 407.559 251.235 408.696 250.629C409.834 250.005 411.12 249.693 412.555 249.693C413.937 249.693 415.18 249.988 416.282 250.577C417.402 251.148 418.285 251.979 418.933 253.07C419.58 254.144 419.904 255.434 419.904 256.94C419.904 257.096 419.895 257.278 419.878 257.486C419.86 257.676 419.843 257.858 419.825 258.031H408.355V255.668H417.673L416.098 256.369C416.098 255.642 415.949 255.009 415.652 254.473C415.355 253.936 414.943 253.52 414.418 253.226C413.893 252.914 413.281 252.758 412.581 252.758C411.881 252.758 411.26 252.914 410.717 253.226C410.192 253.52 409.781 253.945 409.484 254.499C409.186 255.035 409.038 255.676 409.038 256.421V257.044C409.038 257.806 409.204 258.481 409.536 259.07C409.886 259.642 410.367 260.083 410.98 260.395C411.61 260.689 412.345 260.836 413.185 260.836C413.937 260.836 414.593 260.724 415.153 260.499C415.731 260.274 416.256 259.936 416.728 259.486L418.907 261.823C418.259 262.551 417.446 263.113 416.466 263.512C415.486 263.893 414.357 264.083 413.08 264.083Z" fill="#2B3D4A"/>
<path d="M396.599 263.875V249.59C396.599 248.014 397.072 246.758 398.017 245.823C398.962 244.871 400.309 244.395 402.059 244.395C402.654 244.395 403.222 244.455 403.765 244.577C404.325 244.698 404.797 244.888 405.182 245.148L404.106 248.083C403.879 247.927 403.625 247.806 403.345 247.719C403.065 247.633 402.767 247.59 402.453 247.59C401.858 247.59 401.394 247.763 401.061 248.109C400.746 248.438 400.589 248.94 400.589 249.616V250.914L400.694 252.655V263.875H396.599ZM394.421 253.33V250.213H404.211V253.33H394.421Z" fill="#2B3D4A"/>
<path d="M455.203 264.022V261.589L463.681 251.854L464.401 253.2H455.39V250.093H467.76V252.527L459.282 262.262L458.536 260.915H468V264.022H455.203Z" fill="#E84752"/>
<line x1="375.05" y1="237.037" x2="375.05" y2="271.374" stroke="#2B3D4A" stroke-width="0.5"/>
<path d="M477 501V466.427C477.001 454.947 481.562 443.937 489.681 435.819L559.401 366.107C567.521 357.989 572.082 346.979 572.082 335.499V304.896C572.082 293.416 576.643 282.406 584.762 274.288L642.898 216.158C644.534 214.523 646.476 213.226 648.612 212.341C650.749 211.456 653.04 211 655.353 211C665.079 211 672.965 218.884 672.965 228.608C672.965 230.921 673.42 233.211 674.305 235.348C675.19 237.484 676.487 239.425 678.123 241.061C684.359 247.295 694.109 247.875 701 242.804V501H477Z" fill="#E84752"/>
<path d="M-1.03638e-05 223.999L34.5731 224.108C46.0529 224.143 57.0771 219.617 65.2202 211.523L135.151 142.023C143.295 133.929 154.319 129.402 165.799 129.438L196.402 129.535C207.882 129.571 218.906 125.045 227.05 116.951L285.363 58.9978C287.003 57.3677 288.306 55.4299 289.198 53.296C290.09 51.162 290.553 48.8729 290.56 46.56C290.591 36.8334 282.732 28.9231 273.007 28.8924C270.695 28.8851 268.406 28.4232 266.272 27.5313C264.138 26.6395 262.201 25.3357 260.571 23.695C254.357 17.4394 253.807 7.68805 258.9 0.812691L0.705048 -2.70875e-06L-1.03638e-05 223.999Z" fill="#2B3D4A"/>
</svg>
